<svg width="86" height="56" viewBox="0 0 86 56" fill="none" xmlns="http://www.w3.org/2000/svg">
<path d="M84.5667 25.8502H72.0964L50.9624 11.7576C50.7266 11.6008 50.4494 11.5175 50.1667 11.5168H38.1737L23.8131 0.352515C23.5618 0.156551 23.2525 0.0501709 22.9333 0.0501709H1.43333C0.64178 0.0501709 0 0.691951 0 1.4835V21.5502C0 22.3417 0.64178 22.9835 1.43333 22.9835H7.86304L10.5449 26.7243C10.2139 27.3367 10.0382 28.0212 10.0333 28.7168V30.1502C10.0417 32.0874 11.3442 33.7804 13.2156 34.2836C13.0085 34.7917 12.9014 35.3348 12.9 35.8835V37.3168C12.9084 39.2541 14.2109 40.9471 16.0823 41.4503C15.8751 41.9584 15.7681 42.5015 15.7667 43.0502V44.4835C15.7751 46.4207 17.0775 48.1137 18.949 48.6169C18.7418 49.125 18.6347 49.6681 18.6333 50.2168V51.6502C18.6333 54.0248 20.5587 55.9502 22.9333 55.9502H26.5167C28.554 55.9474 30.3876 54.7128 31.1561 52.8252C31.7741 52.9967 32.4117 53.0835 33.0527 53.0835H58.7667C61.4234 53.0737 63.7616 51.3282 64.5259 48.7835H84.5667C85.3582 48.7835 86 48.1417 86 47.3502V27.2835C86 26.492 85.3582 25.8502 84.5667 25.8502ZM12.9 28.7168C12.9 27.9253 13.5418 27.2835 14.3333 27.2835H17.9167C19.1043 27.2835 20.0667 28.2458 20.0667 29.4335C20.0667 30.6212 19.1043 31.5835 17.9167 31.5835H14.3333C13.5418 31.5835 12.9 30.9417 12.9 30.1502V28.7168ZM15.7667 35.8835C15.7667 35.0919 16.4084 34.4502 17.2 34.4502H20.7833C21.971 34.4502 22.9333 35.4125 22.9333 36.6002C22.9333 37.7878 21.971 38.7502 20.7833 38.7502H17.2C16.4084 38.7502 15.7667 38.1084 15.7667 37.3168V35.8835ZM18.6333 43.0502C18.6333 42.2586 19.2751 41.6168 20.0667 41.6168H23.65C24.8377 41.6168 25.8 42.5792 25.8 43.7668C25.8 44.9545 24.8377 45.9168 23.65 45.9168H20.0667C19.2751 45.9168 18.6333 45.2751 18.6333 44.4835V43.0502ZM26.5167 53.0835H22.9333C22.1418 53.0835 21.5 52.4417 21.5 51.6502V50.2168C21.5 49.4253 22.1418 48.7835 22.9333 48.7835H26.5167C27.7043 48.7835 28.6667 49.7458 28.6667 50.9335C28.6667 52.1212 27.7043 53.0835 26.5167 53.0835ZM58.7667 50.2168H56.6671L51.3634 42.2544L48.9783 43.8459L53.2223 50.2168H48.0629L42.7592 42.2544L40.3741 43.8459L44.6223 50.2168H39.4629L34.1592 42.2544L31.7741 43.8459L36.0223 50.2168H33.0527C32.4838 50.2063 31.9232 50.079 31.406 49.8424C31.0098 48.106 29.7228 46.7098 28.0242 46.1737C28.7646 44.867 28.871 43.2951 28.3139 41.901C27.7561 40.5068 26.5951 39.4423 25.1575 39.007C25.898 37.7004 26.0044 36.1285 25.4473 34.7343C24.8895 33.3402 23.7284 32.2757 22.2909 31.8404C22.7066 31.1055 22.927 30.2775 22.9333 29.4335C22.9333 26.6627 20.6875 24.4168 17.9167 24.4168H14.3333C13.7587 24.4161 13.1897 24.5309 12.6606 24.7549L9.76388 20.7145C9.49443 20.3394 9.06121 20.1168 8.6 20.1168H2.86667V2.91684H22.442L33.6042 11.5945C30.7726 11.9739 28.6611 14.3933 28.6667 17.2502C28.6667 20.4164 31.2338 22.9835 34.4 22.9835H47.8893L61.7768 47.9836C61.3681 49.3049 60.1496 50.2091 58.7667 50.2168ZM83.1333 45.9168H63.9093L59.9277 38.7502H67.3667V35.8835H58.3369L49.9805 20.8433C49.7257 20.3947 49.2498 20.1168 48.7333 20.1168H34.4C32.8169 20.1168 31.5333 18.8333 31.5333 17.2502C31.5333 15.6671 32.8169 14.3835 34.4 14.3835H49.7369L70.8758 28.4761C71.1103 28.6322 71.3853 28.7154 71.6667 28.7168H83.1333V45.9168Z" fill="#EFE1E1"/>
</svg>
