<svg width="69" height="40" viewBox="0 0 69 40" fill="none" xmlns="http://www.w3.org/2000/svg">
<path d="M47.4308 9.20004L41.2619 3.03171C39.3252 1.08378 36.6899 -0.00781916 33.9435 4.21684e-05H19.4854C18.5932 0.00116522 17.7133 0.20949 16.9142 0.607049L14.3368 1.89631C13.8202 2.15629 13.2463 2.28039 12.6685 2.25737L11.5 2.21638V4.21684e-05H0V25.3H11.5V21.85H13.4552L14.151 22.3099C16.0978 23.6026 18.3646 24.3325 20.7 24.4179V39.1H69V9.20004H47.4308ZM9.2 23H2.3V2.30004H9.2V23ZM15.4239 20.3963L14.1448 19.55H11.5V4.5175L12.5843 4.55624C13.5473 4.5905 14.503 4.38329 15.365 3.95373L17.9401 2.66447C18.4197 2.4247 18.9492 2.30004 19.4854 2.30004H33.9435C36.0796 2.29387 38.1297 3.14289 39.6357 4.65732L44.1784 9.20004H34.6887L31.8973 6.40927L30.2717 8.03488L38.3953 16.159C39.2977 17.0574 39.3005 18.5174 38.402 19.4203C37.503 20.3227 36.0431 20.3255 35.1407 19.4271L28.3558 12.6422L27.5506 13.3323C25.3275 15.2201 22.078 15.2684 19.7993 13.4468L19.1328 12.9067L17.6835 14.6934L18.3573 15.2398C19.062 15.803 19.8532 16.2488 20.7 16.5599V22.1168C18.8178 22.0331 16.9934 21.4384 15.4239 20.3963ZM31.7828 19.3198L33.5179 21.0555C35.3193 22.8299 38.2111 22.8327 40.0153 21.0611C38.3273 23.675 38.9933 27.1536 41.5275 28.9589C44.0616 30.7642 47.5672 30.2572 49.4859 27.8084C51.4047 25.359 51.0582 21.8338 48.6987 19.8055C46.3397 17.7773 42.8021 17.9632 40.6689 20.2272C41.4545 18.9936 41.5948 17.4561 41.0457 16.1H56.4455C56.9402 18.9936 59.2065 21.2599 62.1 21.7546V26.5455C59.2065 27.0402 56.9402 29.3065 56.4455 32.2H33.2545C32.7598 29.3065 30.4935 27.0402 27.6 26.5455V21.7546C29.2436 21.4778 30.7299 20.6124 31.7828 19.3198ZM41.4 24.15C41.4 22.2448 42.9448 20.7 44.85 20.7C46.7552 20.7 48.3 22.2448 48.3 24.15C48.3 26.0553 46.7552 27.6 44.85 27.6C42.9448 27.6 41.4 26.0553 41.4 24.15ZM66.7 36.8H23V17.0417C24.8233 17.1787 26.6409 16.7138 28.175 15.7193L30.137 17.6813C29.2739 18.8538 27.906 19.5472 26.45 19.55H25.3V28.75H26.45C28.9903 28.75 31.05 30.8097 31.05 33.35V34.5H58.65V33.35C58.65 30.8097 60.7097 28.75 63.25 28.75H64.4V19.55H63.25C60.7097 19.55 58.65 17.4904 58.65 14.95V13.8H39.2887L36.9887 11.5H66.7V36.8Z" fill="#F4EAEA"/>
</svg>
