<svg width="25" height="25" viewBox="0 0 25 25" fill="none" xmlns="http://www.w3.org/2000/svg">
<path d="M6.76731 0.229004H18.2327C21.9643 0.229004 25 3.17066 25 6.78655V17.8968C25 21.5126 21.9643 24.4542 18.2327 24.4542H6.76712C3.03578 24.4542 4.76837e-05 21.5126 4.76837e-05 17.8968V6.78655C4.76837e-05 3.17066 3.03578 0.229004 6.76731 0.229004V0.229004ZM1.46565 17.8968C1.46565 20.7295 3.84392 23.034 6.76731 23.034H18.2327C21.1561 23.034 23.5344 20.7295 23.5344 17.8968V6.78655C23.5344 3.95375 21.1561 1.64919 18.2327 1.64919H6.76712C3.84392 1.64919 1.46565 3.95375 1.46565 6.78655V17.8968Z" fill="#D57120"/>
</svg>
